<svg xmlns="http://www.w3.org/2000/svg" xmlns:xlink="http://www.w3.org/1999/xlink" viewBox="0 0 268.42 93.35">
  <defs>
    <linearGradient id="f3dd61d9-9f7a-48f0-8ab0-26a4b2564936" x1="245.41" y1="55.17" x2="245.41" y2="58.31" gradientUnits="userSpaceOnUse">
      <stop offset="0" stop-color="#0575e6"/>
      <stop offset="1" stop-color="#021b79"/>
    </linearGradient>
    <linearGradient id="e63bf32f-e58e-4cb8-8e11-7feaaf78e267" x1="222.47" y1="55.43" x2="222.47" y2="58.42" gradientUnits="userSpaceOnUse">
      <stop offset="0" stop-color="#d01500"/>
      <stop offset="1" stop-color="#ff1522"/>
    </linearGradient>
    <linearGradient id="e58eaa3d-d68e-41eb-bafe-edead3d2f6cf" x1="254.71" y1="17.45" x2="254.71" y2="51.67" gradientUnits="userSpaceOnUse">
      <stop offset="0" stop-color="#0575e6"/>
      <stop offset="0.18" stop-color="#0569d7" stop-opacity="0.99"/>
      <stop offset="0.54" stop-color="#0449b1" stop-opacity="0.95"/>
      <stop offset="1" stop-color="#021b79" stop-opacity="0.9"/>
    </linearGradient>
    <linearGradient id="ec124f7e-a858-4b8b-900c-8ed954ef38a3" x1="261.28" y1="52.79" x2="261.28" y2="56.23" xlink:href="#f3dd61d9-9f7a-48f0-8ab0-26a4b2564936"/>
    <linearGradient id="ec81abab-e090-4b88-96af-dbf441fbcfb7" x1="222.47" y1="58.11" x2="222.47" y2="61.73" xlink:href="#e63bf32f-e58e-4cb8-8e11-7feaaf78e267"/>
    <linearGradient id="e88d91d9-fcc1-4216-8206-57c4b7f17f45" x1="260.58" y1="49.36" x2="260.58" y2="53.14" xlink:href="#f3dd61d9-9f7a-48f0-8ab0-26a4b2564936"/>
    <linearGradient id="e76039b7-95d3-4238-a30a-c1d44029a704" x1="197.9" y1="61.29" x2="197.9" y2="65.35" xlink:href="#f3dd61d9-9f7a-48f0-8ab0-26a4b2564936"/>
    <linearGradient id="b3957c6c-816a-43f6-8f4f-c7a4227afe06" x1="245.41" y1="52.08" x2="245.41" y2="54.99" xlink:href="#f3dd61d9-9f7a-48f0-8ab0-26a4b2564936"/>
    <linearGradient id="aba58920-e0e3-4069-83d6-8b3975168244" x1="222.47" y1="61.73" x2="222.47" y2="74.17" xlink:href="#e63bf32f-e58e-4cb8-8e11-7feaaf78e267"/>
    <linearGradient id="a5c01de2-4844-405c-b9ce-9ca8ae255438" x1="245.41" y1="58.8" x2="245.41" y2="74.17" gradientUnits="userSpaceOnUse">
      <stop offset="0" stop-color="#0575e6"/>
      <stop offset="0" stop-color="#0575e6"/>
      <stop offset="0.21" stop-color="#0455bf"/>
      <stop offset="0.42" stop-color="#033ca0"/>
      <stop offset="0.62" stop-color="#022a8b"/>
      <stop offset="0.82" stop-color="#021f7d"/>
      <stop offset="1" stop-color="#021b79"/>
    </linearGradient>
    <linearGradient id="bb8f1ec9-dd8c-4acf-9671-0ab0911ba207" x1="262.08" y1="56.41" x2="262.08" y2="74.17" xlink:href="#f3dd61d9-9f7a-48f0-8ab0-26a4b2564936"/>
    <linearGradient id="be0e4c96-6a4a-418f-85d8-1126f6fcd007" x1="182.62" y1="66.83" x2="182.62" y2="74.17" gradientUnits="userSpaceOnUse">
      <stop offset="0.01" stop-color="#054fe6"/>
      <stop offset="1" stop-color="#021b79"/>
    </linearGradient>
    <linearGradient id="ab242f84-afe4-4c4f-8e24-4f23f718b540" x1="191.52" y1="17.45" x2="191.52" y2="67.68" gradientUnits="userSpaceOnUse">
      <stop offset="0" stop-color="#0575e6"/>
      <stop offset="1" stop-color="#021b79" stop-opacity="0.9"/>
    </linearGradient>
    <linearGradient id="bbc5c46c-2c9f-49a4-9761-eb3f7a650549" x1="222.47" y1="17.45" x2="222.47" y2="55.86" xlink:href="#e63bf32f-e58e-4cb8-8e11-7feaaf78e267"/>
    <linearGradient id="b671ab84-8cab-4061-bf4a-50ac2ef3c278" x1="199.28" y1="64.83" x2="199.28" y2="74.17" xlink:href="#f3dd61d9-9f7a-48f0-8ab0-26a4b2564936"/>
    <linearGradient id="b8a0edd0-3e2a-4a5d-a2fb-df4db948c1aa" x1="29.06" y1="16.81" x2="29.06" y2="51.83" gradientUnits="userSpaceOnUse">
      <stop offset="0" stop-color="#0575e6"/>
      <stop offset="0.16" stop-color="#056ad9" stop-opacity="0.98"/>
      <stop offset="0.48" stop-color="#044db6" stop-opacity="0.91"/>
      <stop offset="0.93" stop-color="#021f7e" stop-opacity="0.81"/>
      <stop offset="0.97" stop-color="#021b79" stop-opacity="0.8"/>
    </linearGradient>
    <linearGradient id="ba48fe4e-1998-4a29-bb69-bf4cb495be24" x1="35.76" y1="41.36" x2="35.76" y2="46.25" xlink:href="#f3dd61d9-9f7a-48f0-8ab0-26a4b2564936"/>
    <linearGradient id="b2120069-6a90-433c-a842-70d7a8d00e54" x1="104.81" y1="6.25" x2="104.81" y2="85.97" xlink:href="#f3dd61d9-9f7a-48f0-8ab0-26a4b2564936"/>
    <linearGradient id="acc14e42-e4cb-434e-b87e-a44f7a101be5" x1="69.14" y1="17.45" x2="69.14" y2="35.32" xlink:href="#b8a0edd0-3e2a-4a5d-a2fb-df4db948c1aa"/>
    <linearGradient id="b6406231-f54d-48e9-915a-63b6a5399ba2" x1="108.26" y1="16.81" x2="108.26" y2="25.6" xlink:href="#b8a0edd0-3e2a-4a5d-a2fb-df4db948c1aa"/>
    <linearGradient id="e3df7dfd-8811-41dc-854e-74917deca7ef" x1="201.26" y1="7.07" x2="201.52" y2="7.07" gradientTransform="translate(4.4 -6.18) rotate(1.75)" xlink:href="#e63bf32f-e58e-4cb8-8e11-7feaaf78e267"/>
    <linearGradient id="a0648970-fd4e-4b96-aada-57aaaa2ab660" x1="201.5" y1="4.1" x2="228.54" y2="4.1" gradientTransform="translate(4.4 -6.18) rotate(1.75)" xlink:href="#e63bf32f-e58e-4cb8-8e11-7feaaf78e267"/>
    <linearGradient id="b4e2adfb-d256-42c1-9562-f9a7c4f438f2" x1="219.71" y1="2.09" x2="221.93" y2="2.09" gradientTransform="translate(4.4 -6.18) rotate(1.75)" xlink:href="#e63bf32f-e58e-4cb8-8e11-7feaaf78e267"/>
    <linearGradient id="a5fa740f-b0fd-45a8-ba49-317b86491baf" x1="220.26" y1="2.14" x2="221.43" y2="2.14" gradientTransform="translate(4.4 -6.18) rotate(1.75)" xlink:href="#e63bf32f-e58e-4cb8-8e11-7feaaf78e267"/>
  </defs>
  <title>logo_3</title>
  <g id="ea4239ee-8369-4645-922a-10e446b8ae8d" data-name="Layer 2">
    <g id="eb322b44-fe94-4c2b-9794-845cbb46fefa" data-name="Layer 1">
      <g>
        <g id="f144cd0d-1bd0-47cb-afe5-41ede9ec9052" data-name="bottom-text">
          <path d="M48.31,90a2.83,2.83,0,0,0,.25,1,2.23,2.23,0,0,0,.54.77,2.41,2.41,0,0,0,.8.5,3,3,0,0,0,1,.17,4.08,4.08,0,0,0,.93-.1,2.42,2.42,0,0,0,.8-.34,1.74,1.74,0,0,0,.55-.62,1.94,1.94,0,0,0,.2-.91,1.23,1.23,0,0,0-.22-.75,1.83,1.83,0,0,0-.58-.52,4.45,4.45,0,0,0-.82-.39c-.31-.11-.62-.21-.94-.3s-.79-.25-1.18-.39a4.92,4.92,0,0,1-1.07-.56,2.73,2.73,0,0,1-.77-.82,2.61,2.61,0,0,1-.06-2.31,2.24,2.24,0,0,1,.68-.79,3.07,3.07,0,0,1,1-.48A4.86,4.86,0,0,1,50.79,83a4.11,4.11,0,0,1,1.59.28,2.79,2.79,0,0,1,1,.7,2.57,2.57,0,0,1,.56,1,3.73,3.73,0,0,1,.21,1H53.09a2.53,2.53,0,0,0-.23-.86,2,2,0,0,0-.51-.63,2.23,2.23,0,0,0-.71-.39,3,3,0,0,0-.85-.12A4.28,4.28,0,0,0,50,84a2.24,2.24,0,0,0-.71.28,1.59,1.59,0,0,0-.51.49,1.34,1.34,0,0,0-.19.74,1.29,1.29,0,0,0,.22.77,2.32,2.32,0,0,0,.58.54,4.55,4.55,0,0,0,.83.39l1,.32c.4.12.79.25,1.19.39a5.18,5.18,0,0,1,1,.54,2.63,2.63,0,0,1,.75.81,2.22,2.22,0,0,1,.29,1.2,2.78,2.78,0,0,1-.26,1.26,2.42,2.42,0,0,1-.74.91,3.37,3.37,0,0,1-1.12.56,5.23,5.23,0,0,1-1.41.18,4.07,4.07,0,0,1-1.35-.23,3.76,3.76,0,0,1-1.17-.67,3.34,3.34,0,0,1-.83-1.06A3.2,3.2,0,0,1,47.23,90Z"/>
          <path d="M58.77,83.23H62.5a3.21,3.21,0,0,1,1.28.25,2.87,2.87,0,0,1,.93.65,2.65,2.65,0,0,1,.57.9,3,3,0,0,1,.19,1,2.92,2.92,0,0,1-.2,1,2.89,2.89,0,0,1-.58.9,2.55,2.55,0,0,1-.93.63,3.15,3.15,0,0,1-1.26.24H59.83v4.22H58.77Zm1.06,4.69H62.5a1.83,1.83,0,0,0,.73-.15,2,2,0,0,0,.61-.4,1.75,1.75,0,0,0,.42-.61,1.86,1.86,0,0,0,.16-.74,1.78,1.78,0,0,0-.56-1.31,1.86,1.86,0,0,0-.6-.38,1.9,1.9,0,0,0-.76-.14H59.83Z"/>
          <path d="M78.61,88.16a6.9,6.9,0,0,1-.29,2.09,4.49,4.49,0,0,1-.86,1.62,4,4,0,0,1-1.38,1.07,4.37,4.37,0,0,1-1.89.38,4.31,4.31,0,0,1-1.87-.38,4,4,0,0,1-1.39-1.07,4.63,4.63,0,0,1-.85-1.62,7.64,7.64,0,0,1,0-4.17,4.63,4.63,0,0,1,.85-1.62,4,4,0,0,1,1.39-1.07A4.31,4.31,0,0,1,74.19,83a4.37,4.37,0,0,1,1.89.38,4,4,0,0,1,1.38,1.07,4.49,4.49,0,0,1,.86,1.62A6.88,6.88,0,0,1,78.61,88.16Zm-1,0a5.79,5.79,0,0,0-.26-1.78,4.12,4.12,0,0,0-.72-1.33,3.12,3.12,0,0,0-3.71-.83,3,3,0,0,0-1.06.83,3.75,3.75,0,0,0-.71,1.33,6.26,6.26,0,0,0,0,3.57,3.84,3.84,0,0,0,.71,1.33,3.15,3.15,0,0,0,1.06.83,3.17,3.17,0,0,0,2.65,0,3.25,3.25,0,0,0,1.06-.83A4.22,4.22,0,0,0,77.3,90,5.81,5.81,0,0,0,77.56,88.16Z"/>
          <path d="M89.94,86a2.89,2.89,0,0,1-.35,1.38,2.52,2.52,0,0,1-1,1,1.54,1.54,0,0,1,.63.3,1.4,1.4,0,0,1,.38.46,1.82,1.82,0,0,1,.19.57,3.35,3.35,0,0,1,0,.63V91.9a2.5,2.5,0,0,0,.31,1.17H89a1.2,1.2,0,0,1-.18-.56c0-.21,0-.4,0-.55V90.4a1.88,1.88,0,0,0-.09-.57,1.43,1.43,0,0,0-.32-.49,1.46,1.46,0,0,0-.55-.36,2.32,2.32,0,0,0-.84-.13H84v4.22H83V83.23h4a3.21,3.21,0,0,1,1.28.25,2.87,2.87,0,0,1,.93.65,2.65,2.65,0,0,1,.57.9A2.77,2.77,0,0,1,89.94,86ZM84,87.92h3a1.8,1.8,0,0,0,.73-.15,2,2,0,0,0,.61-.4,1.75,1.75,0,0,0,.42-.61,1.7,1.7,0,0,0,.16-.74,1.9,1.9,0,0,0-.14-.73,1.72,1.72,0,0,0-.4-.58,1.91,1.91,0,0,0-.61-.38,2,2,0,0,0-.77-.14H84Z"/>
          <path d="M102,83.23v1H98.71v8.88h-1V84.19H94.4v-1Z"/>
          <path d="M107.36,90a3.07,3.07,0,0,0,.24,1,2.54,2.54,0,0,0,.54.77,2.57,2.57,0,0,0,.81.5,2.93,2.93,0,0,0,1,.17,4.17,4.17,0,0,0,.94-.1,2.51,2.51,0,0,0,.8-.34,1.71,1.71,0,0,0,.54-.62,1.83,1.83,0,0,0,.21-.91,1.23,1.23,0,0,0-.22-.75,2,2,0,0,0-.58-.52,4.26,4.26,0,0,0-.83-.39q-.46-.16-.93-.3c-.4-.12-.79-.25-1.18-.39a4.92,4.92,0,0,1-1.07-.56,2.61,2.61,0,0,1-.77-.82,2.61,2.61,0,0,1-.06-2.31,2.21,2.21,0,0,1,.67-.79,3.26,3.26,0,0,1,1-.48,5,5,0,0,1,1.33-.17,4.11,4.11,0,0,1,1.59.28,3,3,0,0,1,1,.7,2.71,2.71,0,0,1,.56,1,3.73,3.73,0,0,1,.21,1h-1.08a2.33,2.33,0,0,0-.24-.86,1.94,1.94,0,0,0-.5-.63,2.34,2.34,0,0,0-.71-.39,3,3,0,0,0-.85-.12A4.28,4.28,0,0,0,109,84a2.3,2.3,0,0,0-.72.28,1.67,1.67,0,0,0-.5.49,1.34,1.34,0,0,0-.19.74,1.29,1.29,0,0,0,.22.77,2.32,2.32,0,0,0,.58.54,4.26,4.26,0,0,0,.83.39l1,.32c.4.12.79.25,1.19.39a5.18,5.18,0,0,1,1,.54,2.76,2.76,0,0,1,.75.81,2.32,2.32,0,0,1,.29,1.2,2.92,2.92,0,0,1-.26,1.26,2.52,2.52,0,0,1-.74.91,3.37,3.37,0,0,1-1.12.56,5.31,5.31,0,0,1-1.42.18,4.16,4.16,0,0,1-1.35-.23,3.83,3.83,0,0,1-1.16-.67,3.34,3.34,0,0,1-.83-1.06,3.07,3.07,0,0,1-.34-1.39Z"/>
          <path d="M126.29,83.23l3.13,8.39,3.18-8.39H134v9.84h-1.06V85L130,93.07h-1L126,85v8.07h-1V83.23Z"/>
          <path d="M142.48,83.23l3.58,9.84H145l-1.09-3h-4.22l-1.1,3h-1.12L141,83.23Zm-.74,1L140,89.13h3.52Z"/>
          <path d="M151.23,83.23l5,8.5v-8.5h1.06v9.84h-1.41l-5-8.5v8.5h-1.06V83.23Z"/>
          <path d="M165.78,83.23l3.59,9.84h-1.11l-1.1-3h-4.22l-1.09,3h-1.13l3.63-9.84Zm-.73,1-1.77,4.93h3.53Z"/>
          <path d="M174.2,88.14a5.58,5.58,0,0,0,.27,1.8,4,4,0,0,0,.73,1.34,3.1,3.1,0,0,0,1.08.84,3.2,3.2,0,0,0,1.3.28,2.48,2.48,0,0,0,1.17-.3,3.59,3.59,0,0,0,1-.79,4,4,0,0,0,.73-1.14,3.63,3.63,0,0,0,.31-1.32h-3.06v-.93h4.05v5.15h-.63l-.32-1.75a3.74,3.74,0,0,1-.61.74,5.48,5.48,0,0,1-.8.64,4.21,4.21,0,0,1-.9.45,2.64,2.64,0,0,1-.94.17,4.36,4.36,0,0,1-1.86-.39,4.08,4.08,0,0,1-1.4-1.1,4.85,4.85,0,0,1-.89-1.65,6.41,6.41,0,0,1-.31-2,6.13,6.13,0,0,1,.29-1.9,5.45,5.45,0,0,1,.86-1.66,4.34,4.34,0,0,1,1.38-1.18,3.82,3.82,0,0,1,1.86-.45,5.08,5.08,0,0,1,1.57.23,4.06,4.06,0,0,1,1.2.65,3.64,3.64,0,0,1,.85,1,5.19,5.19,0,0,1,.54,1.25h-1.11a3.23,3.23,0,0,0-1.13-1.65,3.19,3.19,0,0,0-1.92-.54,2.76,2.76,0,0,0-1.35.34,3.33,3.33,0,0,0-1.05.93,4.31,4.31,0,0,0-.69,1.35A5.27,5.27,0,0,0,174.2,88.14Z"/>
          <path d="M192.71,83.23v1H187.2v3.32h5.19v.95H187.2v3.66H193v.95h-6.81V83.23Z"/>
          <path d="M198.64,83.23l3.13,8.39L205,83.23h1.36v9.84h-1.05V85l-2.95,8.07h-1l-3-8.07v8.07h-1.05V83.23Z"/>
          <path d="M217.21,83.23v1H211.7v3.32h5.19v.95H211.7v3.66h5.76v.95h-6.81V83.23Z"/>
          <path d="M223.18,83.23l5,8.5v-8.5h1.05v9.84h-1.41l-5-8.5v8.5h-1.05V83.23Z"/>
          <path d="M241.12,83.23v1h-3.26v8.88h-1.05V84.19h-3.25v-1Z"/>
        </g>
        <g>
          <polygon points="249.82 55.17 241 56.3 241 58.31 249.82 56.99 249.82 55.17" style="fill: url(#f3dd61d9-9f7a-48f0-8ab0-26a4b2564936)"/>
          <polygon points="218.06 58.42 226.88 57.1 226.88 55.43 218.06 56.72 218.06 58.42" style="fill: url(#e63bf32f-e58e-4cb8-8e11-7feaaf78e267)"/>
          <polygon points="249.82 50.05 249.82 45.41 251.82 49.69 268.42 46.65 268.42 17.45 259.6 17.45 259.6 46.14 246.13 17.45 241 17.45 241 51.67 249.82 50.05" style="fill: url(#e58eaa3d-d68e-41eb-bafe-edead3d2f6cf)"/>
          <polygon points="268.42 52.79 254.13 54.62 254.89 56.23 268.42 54.22 268.42 52.79" style="fill: url(#ec124f7e-a858-4b8b-900c-8ed954ef38a3)"/>
          <polygon points="226.88 58.11 218.06 59.23 218.06 61.73 226.88 60.41 226.88 58.11" style="fill: url(#ec81abab-e090-4b88-96af-dbf441fbcfb7)"/>
          <polygon points="268.42 49.37 252.74 51.65 253.44 53.14 268.42 50.9 268.42 49.37" style="fill: url(#e88d91d9-fcc1-4216-8206-57c4b7f17f45)"/>
          <polygon points="193.84 65.34 202.55 64.05 202 61.29 193.25 62.41 193.84 65.34" style="fill: url(#e76039b7-95d3-4238-a30a-c1d44029a704)"/>
          <polygon points="241 54.99 249.82 53.68 249.82 52.08 241 53.37 241 54.99" style="fill: url(#b3957c6c-816a-43f6-8f4f-c7a4227afe06)"/>
          <polygon points="218.06 62.86 218.06 74.17 226.88 74.17 226.88 61.73 218.06 62.86" style="fill: url(#aba58920-e0e3-4069-83d6-8b3975168244)"/>
          <polygon points="241 59.92 241 74.17 249.82 74.17 249.82 58.8 241 59.92" style="fill: url(#a5c01de2-4844-405c-b9ce-9ca8ae255438)"/>
          <polygon points="255.73 58.04 263.29 74.17 268.42 74.17 268.42 56.41 255.73 58.04" style="fill: url(#bb8f1ec9-dd8c-4acf-9671-0ab0911ba207)"/>
          <polygon points="178.21 67.96 178.21 74.17 187.03 74.17 187.03 66.83 178.21 67.96" style="fill: url(#be0e4c96-6a4a-418f-85d8-1126f6fcd007)"/>
          <path d="M187,66.36V63.21l-7.6,1,7.6-1.13V51.4h4l2.16,10.73,8.7-1.3-.34-1.7-6.63,1,6.58-1.21-2-9.76a8.43,8.43,0,0,0,1.29-1.05q4-3.72,4-10.61V31.39q0-6.81-4-10.53a13,13,0,0,0-9.31-3.41H178.21V67.68Zm0-40h4.49a4.69,4.69,0,0,1,3.29,1,5.63,5.63,0,0,1,1.2,4.05v6.08q0,2.91-1.2,4.05a4.69,4.69,0,0,1-3.29,1H187Z" style="fill: url(#ab242f84-afe4-4c4f-8e24-4f23f718b540)"/>
          <polygon points="226.88 54.25 226.88 17.45 218.06 17.45 218.06 55.86 226.88 54.25" style="fill: url(#bbc5c46c-2c9f-49a4-9761-eb3f7a650549)"/>
          <polygon points="193.96 65.95 195.61 74.17 204.59 74.17 202.71 64.83 193.96 65.95" style="fill: url(#b671ab84-8cab-4061-bf4a-50ac2ef3c278)"/>
        </g>
        <g>
          <path d="M24.57,30.74c0-1.94.4-3.29,1.21-4a4.68,4.68,0,0,1,3.28-1,4.83,4.83,0,0,1,3.37,1c.75.7,1.12,2,1.12,4v5h8.83v-5q0-6.72-4-10.61a13,13,0,0,0-9.31-3.32,13.35,13.35,0,0,0-9.3,3.32,14.45,14.45,0,0,0-4,10.61V51.83q4.07-1.84,8.82-3.77Z" style="fill: url(#b8a0edd0-3e2a-4a5d-a2fb-df4db948c1aa)"/>
          <path d="M29.14,46.25c2.23-.87,4.55-1.74,7-2.64,2.12-.78,4.17-1.51,6.25-2.23v0H29.14Z" style="fill: url(#ba48fe4e-1998-4a29-bb69-bf4cb495be24)"/>
          <path d="M209.63,6.25S189,9.4,165.19,13.54c-15.1,2.63-31.43,5.66-44.52,8.55h0c-2.24.5-4.39,1-6.42,1.47l-.2.05c-.9.21-1.76.42-2.61.64l-.43.1c-1,.24-1.9.48-2.79.72l-4.11,1.09-1.19.32-3.51.94-1.4.37-1.41.38h0c-7.63,2-14,3.78-19.46,5.31h0c-3.16.88-6,1.71-8.68,2.49h0l-1.84.55-.22.07-1.63.49-.22.07L63,37.63l-.25.08-1.64.5,0,0c-5.6,1.75-10.4,3.4-15.58,5.31l-3.08,1.14h0c-2.43.92-4.74,1.81-6.95,2.69h0L32.2,48.68h0q-4.08,1.7-7.63,3.31h0L22.19,53.1h0A90.84,90.84,0,0,0,7.92,61.29C4.34,63.9-.58,67.81.06,73.65c.54,5,8.6,8.08,16.4,9.92A114,114,0,0,0,31.3,86S17,80.1,14.58,76.18c-2-3.35-.47-6.63,2.16-9.4a13.3,13.3,0,0,0,3,4.72,13.4,13.4,0,0,0,9.3,3.32,13.07,13.07,0,0,0,9.31-3.32q4-3.89,4-10.62v-8C46,51.34,49,50,50,49.62q4.7-1.86,9.54-3.67L53.92,74.17h9l1.61-9h10.1l1.6,9h9L78.3,39.35c6-2,12-3.9,18.12-5.73V60.88a14.45,14.45,0,0,0,4,10.62,13.4,13.4,0,0,0,9.3,3.32A13,13,0,0,0,119,71.5q4-3.89,4-10.62V41.36H109.81v8.91h4.41V60.88c0,2-.37,3.35-1.12,4.05a4.83,4.83,0,0,1-3.37,1,4.68,4.68,0,0,1-3.28-1c-.81-.75-1.21-2.1-1.21-4.05V31c2.93-.85,5.85-1.69,8.75-2.5a9.62,9.62,0,0,1,.23,2.23v5H123v-5a18.21,18.21,0,0,0-.55-4.56c7.81-2.11,15.45-4.06,22.76-5.87L134.59,74.17h9l1.61-9h10.1l1.6,9h9L154.75,18C186.31,10.49,209.63,6.25,209.63,6.25ZM33.55,60.88c0,2-.37,3.35-1.12,4.05a4.83,4.83,0,0,1-3.37,1,4.68,4.68,0,0,1-3.28-1C25,64.2,24.6,62.88,24.58,61c1.77-1,3.05-1.57,3.05-1.57l5.92-2.63ZM66,56.27l2.35-13.53L70.61,42l2.48,14.31Zm80.67,0,3.53-20.34,3.53,20.34Z" style="fill: url(#b2120069-6a90-433c-a842-70d7a8d00e54)"/>
          <path d="M74,17.45H65.15L61.61,35.32c4.34-1.25,9.26-2.63,15.06-4.21Z" style="fill: url(#acc14e42-e4cb-434e-b87e-a44f7a101be5)"/>
          <path d="M119.34,20.46c-.1-.11-.2-.23-.31-.33a13,13,0,0,0-9.3-3.32,13.35,13.35,0,0,0-9.3,3.32,13.29,13.29,0,0,0-3.26,5.47l1.72-.46C104.5,23.65,111.57,22.06,119.34,20.46Z" style="fill: url(#b6406231-f54d-48e9-915a-63b6a5399ba2)"/>
        </g>
        <g>
          <path d="M205.61,7V7a2.27,2.27,0,0,1-.25.06v0l.13,0Z" style="fill: url(#e3df7dfd-8811-41dc-854e-74917deca7ef)"/>
          <path d="M232.77.85a6.69,6.69,0,0,0-1-.31,12.22,12.22,0,0,0-2-.3,18.9,18.9,0,0,0-3.19,0,26.2,26.2,0,0,0-6.71,1.5.12.12,0,0,1-.13,0l-1.59-1-.07-.05.06,0,.37-.15a5.73,5.73,0,0,0,.81-.44s0,0,0,0h-.07a4,4,0,0,0-.69,0,11,11,0,0,0-1.89.19,14.36,14.36,0,0,0-2.56.73,5.93,5.93,0,0,0-.72.34s0,0,0,.07,0,.13,0,.19,0,0,.05,0h.08a8.7,8.7,0,0,0,1,0,.28.28,0,0,1,.13,0L217,3s0,0,0,0,0,0-.06,0c-.32.17-.63.36-.93.56s-.49.33-.72.51a.08.08,0,0,0,0,.09.8.8,0,0,1,0,.15c0,.07,0,.06,0,.08l-.32.13s0,0-.06,0a1.29,1.29,0,0,1,0-.19.11.11,0,0,0-.07-.09l-.31-.1a3.56,3.56,0,0,0-1-.07,7.41,7.41,0,0,0-2.58.59c-.52.21-1,.46-1.51.71s-1.13.56-1.71.8a15.5,15.5,0,0,1-2.08.72s0,0,0,0l.82-.13a19.85,19.85,0,0,1,2.78-.15c.57,0,1.15,0,1.73,0a7.94,7.94,0,0,0,2.16-.31,5.46,5.46,0,0,0,1.33-.54,2.07,2.07,0,0,0,.56-.41l.1-.11s0-.08,0-.11,0,0-.07,0h-.67s0,0,0,0L214.24,5h0a6.47,6.47,0,0,0,.88,0,13.45,13.45,0,0,0,3.21-.65,8,8,0,0,0,1.35-.56.09.09,0,0,0,.06-.05,11.6,11.6,0,0,0-3.06.36l.44-.26A20,20,0,0,1,220,2.5a26.52,26.52,0,0,1,3.8-1.08A24.46,24.46,0,0,1,228.23.9,15.75,15.75,0,0,1,230.4,1h0s0,0,0,0a16.49,16.49,0,0,1-1.54.84,21.73,21.73,0,0,1-2.41,1,.11.11,0,0,0-.08.09,1.29,1.29,0,0,1-.58.84,1.35,1.35,0,0,1-1.69-.18.11.11,0,0,0-.12,0l-.65.15a24.83,24.83,0,0,1-3.83.52.72.72,0,0,0-.29.06l-.19.08a13.39,13.39,0,0,1-3.37.82l-.11,0a1.46,1.46,0,0,1,.05.2.1.1,0,0,0,.09.08,13.92,13.92,0,0,0,1.94.26s0,0,.07,0l0,0c-.48.78-1,1.55-1.46,2.33a.13.13,0,0,1-.07.06,3.66,3.66,0,0,0-.46.18,5.77,5.77,0,0,0-.56.27c-.05,0-.05,0,0,.08a1,1,0,0,1,0,.17s0,0,.07.06c.27,0,.54,0,.81,0a13.45,13.45,0,0,0,2.2-.35,11.5,11.5,0,0,0,2-.66,4.44,4.44,0,0,0,.83-.45s0,0,0,0a6.28,6.28,0,0,0-1.44,0l0,0,1-1.63a.1.1,0,0,1,.09-.05A26.08,26.08,0,0,0,224.57,5,25.7,25.7,0,0,0,228,3.92a18.12,18.12,0,0,0,3-1.55,9.68,9.68,0,0,0,1.59-1.26,2.19,2.19,0,0,0,.21-.23ZM213.69,5.43a.88.88,0,0,1-.2.09,5.2,5.2,0,0,1-.77.22A12.32,12.32,0,0,1,211,6c-.65.07-1.3.14-1.95.25l-.8.14h-.07l.12,0c.8-.22,1.59-.48,2.38-.76a15.21,15.21,0,0,1,1.49-.48,8.09,8.09,0,0,1,1.11-.23h.29a.07.07,0,0,1,.06.06l.09.4A.06.06,0,0,1,213.69,5.43Z" style="fill: url(#a0648970-fd4e-4b96-aada-57aaaa2ab660)"/>
          <path d="M225.65,1.71A1.11,1.11,0,1,0,226,3.24,1.1,1.1,0,0,0,225.65,1.71Zm-1,1.61A.78.78,0,1,1,225.46,2a.78.78,0,0,1-.83,1.33Z" style="fill: url(#b4e2adfb-d256-42c1-9562-f9a7c4f438f2)"/>
          <path d="M224.49,2.94a.64.64,0,0,0,.89-.81.62.62,0,1,1-.89.81Z" style="fill: url(#a5fa740f-b0fd-45a8-ba49-317b86491baf)"/>
        </g>
      </g>
    </g>
  </g>
</svg>
